<svg width="900" height="1200" viewBox="0 0 900 1200" fill="none" xmlns="http://www.w3.org/2000/svg">
  <defs>
    <linearGradient id="bg" x1="0" y1="0" x2="1" y2="1">
      <stop offset="0%" stop-color="#2F8F57"/>
      <stop offset="100%" stop-color="#7FD3A2"/>
    </linearGradient>
    <linearGradient id="screen" x1="0" y1="0" x2="0" y2="1">
      <stop offset="0%" stop-color="#F5FBF6"/>
      <stop offset="100%" stop-color="#E2F5E9"/>
    </linearGradient>
    <filter id="shadow" x="-20%" y="-20%" width="140%" height="140%">
      <feDropShadow dx="0" dy="24" stdDeviation="30" flood-color="#123E27" flood-opacity="0.25"/>
    </filter>
  </defs>

  <rect x="90" y="40" width="720" height="1120" rx="80" fill="#0D1F16" filter="url(#shadow)"/>
  <rect x="130" y="120" width="640" height="960" rx="48" fill="url(#screen)"/>

  <rect x="160" y="170" width="580" height="120" rx="28" fill="#FFFFFF"/>
  <rect x="190" y="200" width="220" height="20" rx="10" fill="#2F8F57"/>
  <rect x="190" y="235" width="160" height="16" rx="8" fill="#7FD3A2"/>

  <rect x="160" y="320" width="580" height="150" rx="28" fill="#FFFFFF"/>
  <rect x="190" y="355" width="200" height="18" rx="9" fill="#2F8F57"/>
  <rect x="190" y="385" width="260" height="14" rx="7" fill="#7FD3A2"/>
  <rect x="190" y="415" width="140" height="14" rx="7" fill="#C7EDD3"/>

  <rect x="160" y="510" width="280" height="180" rx="28" fill="#FFFFFF"/>
  <rect x="190" y="545" width="170" height="18" rx="9" fill="#2F8F57"/>
  <rect x="190" y="575" width="120" height="14" rx="7" fill="#7FD3A2"/>

  <rect x="460" y="510" width="280" height="180" rx="28" fill="#FFFFFF"/>
  <rect x="490" y="545" width="170" height="18" rx="9" fill="#2F8F57"/>
  <rect x="490" y="575" width="120" height="14" rx="7" fill="#7FD3A2"/>

  <rect x="160" y="730" width="580" height="260" rx="32" fill="url(#bg)"/>
  <rect x="200" y="780" width="420" height="18" rx="9" fill="#E2F5E9"/>
  <rect x="200" y="820" width="320" height="14" rx="7" fill="#F5FBF6"/>
  <rect x="200" y="870" width="500" height="10" rx="5" fill="#F5FBF6" opacity="0.7"/>
  <rect x="200" y="900" width="420" height="10" rx="5" fill="#F5FBF6" opacity="0.6"/>
  <rect x="200" y="930" width="360" height="10" rx="5" fill="#F5FBF6" opacity="0.5"/>

  <rect x="350" y="70" width="200" height="10" rx="5" fill="#1D3B2A"/>
  <circle cx="450" cy="85" r="8" fill="#1D3B2A"/>
</svg>
